<svg width="220" height="44" viewBox="0 0 220 44" fill="none" xmlns="http://www.w3.org/2000/svg">
<rect x="70.5" y="2.5" width="79" height="39" rx="19.5" fill="white" stroke="#E0E0E0"/>
<g filter="url(#filter0_d)">
<circle cx="88" cy="22" r="22" fill="#24CCA7"/>
</g>
<path d="M88 12V32" stroke="white" stroke-width="2"/>
<path d="M78 22L98 22" stroke="white" stroke-width="2"/>
<path d="M173.52 22.952V27H171.552V15.8C172.021 15.8 172.528 15.7947 173.072 15.784C173.627 15.7733 174.181 15.768 174.736 15.768C175.525 15.768 176.208 15.8693 176.784 16.072C177.371 16.264 177.824 16.536 178.144 16.888C178.464 17.2293 178.699 17.608 178.848 18.024C178.997 18.4293 179.072 18.8773 179.072 19.368C179.072 20.3813 178.709 21.24 177.984 21.944C177.269 22.648 176.267 23 174.976 23C174.325 23 173.84 22.984 173.52 22.952ZM174.928 17.608L173.52 17.64V21.08C174.085 21.1333 174.549 21.16 174.912 21.16C175.541 21.16 176.043 21.0053 176.416 20.696C176.8 20.3867 176.992 19.9387 176.992 19.352C176.992 18.1893 176.304 17.608 174.928 17.608ZM180.662 21.656L180.198 20.312C180.977 19.8533 181.825 19.624 182.742 19.624C183.745 19.624 184.475 19.8693 184.934 20.36C185.393 20.8507 185.622 21.6027 185.622 22.616V27H184.022V26.168C183.595 26.7867 182.886 27.096 181.894 27.096C181.211 27.096 180.662 26.8987 180.246 26.504C179.841 26.0987 179.638 25.56 179.638 24.888C179.638 24.1413 179.878 23.5653 180.358 23.16C180.838 22.7547 181.473 22.552 182.262 22.552C182.913 22.552 183.457 22.7067 183.894 23.016C183.915 22.376 183.819 21.9067 183.606 21.608C183.403 21.3093 183.051 21.16 182.55 21.16C181.995 21.16 181.366 21.3253 180.662 21.656ZM182.502 25.544C183.121 25.544 183.585 25.3253 183.894 24.888V24.152C183.595 23.9173 183.174 23.8 182.63 23.8C182.289 23.8 182.011 23.88 181.798 24.04C181.585 24.2 181.478 24.4187 181.478 24.696C181.478 24.952 181.574 25.16 181.766 25.32C181.958 25.4693 182.203 25.544 182.502 25.544ZM192.964 24.584L193.828 25.928C193.22 26.76 192.266 27.176 190.964 27.176C189.802 27.176 188.858 26.8293 188.132 26.136C187.418 25.4533 187.06 24.5413 187.06 23.4C187.06 22.3227 187.412 21.4267 188.116 20.712C188.82 19.9867 189.711 19.624 190.788 19.624C192.068 19.624 193.034 19.9493 193.684 20.6L192.82 22.056C192.33 21.5867 191.732 21.352 191.028 21.352C190.495 21.352 190.026 21.544 189.62 21.928C189.226 22.2907 189.028 22.7813 189.028 23.4C189.028 24.0187 189.231 24.52 189.636 24.904C190.063 25.2773 190.554 25.464 191.108 25.464C191.823 25.464 192.442 25.1707 192.964 24.584ZM199.839 19.8H201.967L199.567 23.24L202.127 27H199.887L198.207 24.408L196.463 27H194.335L196.895 23.336L194.495 19.8H196.751L198.271 22.184L199.839 19.8ZM203.632 26.12C202.918 25.4053 202.56 24.4987 202.56 23.4C202.56 22.3013 202.918 21.4 203.632 20.696C204.347 19.9813 205.296 19.624 206.48 19.624C207.654 19.624 208.598 19.9813 209.312 20.696C210.038 21.4 210.4 22.3013 210.4 23.4C210.4 24.488 210.038 25.3947 209.312 26.12C208.587 26.824 207.643 27.176 206.48 27.176C205.296 27.176 204.347 26.824 203.632 26.12ZM205.088 21.928C204.715 22.312 204.528 22.8027 204.528 23.4C204.528 23.9973 204.71 24.4933 205.072 24.888C205.446 25.272 205.915 25.464 206.48 25.464C207.056 25.464 207.526 25.272 207.888 24.888C208.262 24.504 208.448 24.008 208.448 23.4C208.448 22.8027 208.262 22.312 207.888 21.928C207.515 21.544 207.046 21.352 206.48 21.352C205.926 21.352 205.462 21.544 205.088 21.928ZM212.606 28.68H210.894V25.288H211.806C212.372 24.5307 212.708 23.2773 212.814 21.528L212.926 19.8H218.238V25.288H219.438V28.68H217.71V27H212.606V28.68ZM214.638 21.528L214.59 22.264C214.462 23.6507 214.174 24.6587 213.726 25.288H216.398V21.528H214.638Z" fill="#E0E0E0"/>
<path d="M2.0945 29H0.2545V25.16H1.4545C1.7745 24.7867 2.12117 23.96 2.4945 22.68C2.8785 21.368 3.10783 19.8213 3.1825 18.04L3.2945 15.8H10.2385V25.16H11.7585V29H9.9185V27H2.0945V29ZM5.1985 17.64L5.0225 19.592C4.9265 20.936 4.72917 22.1147 4.4305 23.128C4.12117 24.184 3.84917 24.8613 3.6145 25.16H8.2865V17.64H5.1985ZM13.5386 26.12C12.824 25.4053 12.4666 24.4987 12.4666 23.4C12.4666 22.3013 12.824 21.4 13.5386 20.696C14.2533 19.9813 15.2026 19.624 16.3866 19.624C17.56 19.624 18.504 19.9813 19.2186 20.696C19.944 21.4 20.3066 22.3013 20.3066 23.4C20.3066 24.488 19.944 25.3947 19.2186 26.12C18.4933 26.824 17.5493 27.176 16.3866 27.176C15.2026 27.176 14.2533 26.824 13.5386 26.12ZM14.9946 21.928C14.6213 22.312 14.4346 22.8027 14.4346 23.4C14.4346 23.9973 14.616 24.4933 14.9786 24.888C15.352 25.272 15.8213 25.464 16.3866 25.464C16.9626 25.464 17.432 25.272 17.7946 24.888C18.168 24.504 18.3546 24.008 18.3546 23.4C18.3546 22.8027 18.168 22.312 17.7946 21.928C17.4213 21.544 16.952 21.352 16.3866 21.352C15.832 21.352 15.368 21.544 14.9946 21.928ZM26.2135 19.8H28.3415L25.9415 23.24L28.5015 27H26.2615L24.5815 24.408L22.8375 27H20.7095L23.2695 23.336L20.8695 19.8H23.1255L24.6455 22.184L26.2135 19.8ZM30.0074 26.12C29.2927 25.4053 28.9354 24.4987 28.9354 23.4C28.9354 22.3013 29.2927 21.4 30.0074 20.696C30.722 19.9813 31.6714 19.624 32.8554 19.624C34.0287 19.624 34.9727 19.9813 35.6874 20.696C36.4127 21.4 36.7754 22.3013 36.7754 23.4C36.7754 24.488 36.4127 25.3947 35.6874 26.12C34.962 26.824 34.018 27.176 32.8554 27.176C31.6714 27.176 30.722 26.824 30.0074 26.12ZM31.4634 21.928C31.09 22.312 30.9034 22.8027 30.9034 23.4C30.9034 23.9973 31.0847 24.4933 31.4474 24.888C31.8207 25.272 32.29 25.464 32.8554 25.464C33.4314 25.464 33.9007 25.272 34.2634 24.888C34.6367 24.504 34.8234 24.008 34.8234 23.4C34.8234 22.8027 34.6367 22.312 34.2634 21.928C33.89 21.544 33.4207 21.352 32.8554 21.352C32.3007 21.352 31.8367 21.544 31.4634 21.928ZM38.9814 28.68H37.2694V25.288H38.1814C38.7467 24.5307 39.0827 23.2773 39.1894 21.528L39.3014 19.8H44.6134V25.288H45.8134V28.68H44.0854V27H38.9814V28.68ZM41.0134 21.528L40.9654 22.264C40.8374 23.6507 40.5494 24.6587 40.1014 25.288H42.7734V21.528H41.0134Z" fill="#24CCA7"/>
<defs>
<filter id="filter0_d" x="51" y="-9" width="74" height="74" filterUnits="userSpaceOnUse" color-interpolation-filters="sRGB">
<feFlood flood-opacity="0" result="BackgroundImageFix"/>
<feColorMatrix in="SourceAlpha" type="matrix" values="0 0 0 0 0 0 0 0 0 0 0 0 0 0 0 0 0 0 127 0" result="hardAlpha"/>
<feOffset dy="6"/>
<feGaussianBlur stdDeviation="7.5"/>
<feColorMatrix type="matrix" values="0 0 0 0 0.141176 0 0 0 0 0.8 0 0 0 0 0.654902 0 0 0 0.5 0"/>
<feBlend mode="normal" in2="BackgroundImageFix" result="effect1_dropShadow"/>
<feBlend mode="normal" in="SourceGraphic" in2="effect1_dropShadow" result="shape"/>
</filter>
</defs>
</svg>
